<svg xmlns="http://www.w3.org/2000/svg" viewBox="0 0 24 24" id="advantage-3">
  <path 
    style="fill: #535a53;"
    d="M23 18.445a.43.43 0 0 1-.43.43h-.182a2.481 2.481 0 0 1 0 3.266h.182a.43.43 0 1 1 0 .859H1.43a.43.43 0 1 1 0-.86h.182a2.481 2.481 0 0 1 0-3.265H1.43a.43.43 0 1 1 0-.86h1.375V14.32a.43.43 0 0 1 .43-.43h4.124a.43.43 0 0 1 .43.43v3.696H22.57a.43.43 0 0 1 .43.43zm-18.728-.43h2.05L5.297 16.99l-1.025 1.026zm2.658-.607v-2.05l-1.025 1.025 1.025 1.025zm-1.633-1.633l1.025-1.025h-2.05l1.025 1.025zm-.608.608l-1.025-1.025v2.05l1.025-1.025zm5.43 2.492H5.374a2.481 2.481 0 0 1 0 3.266h4.747a2.481 2.481 0 0 1 0-3.266zm.248 1.633c0 .9.733 1.633 1.633 1.633s1.633-.733 1.633-1.633S12.9 18.875 12 18.875s-1.633.732-1.633 1.633zm3.513-1.633a2.481 2.481 0 0 1 0 3.266h4.747a2.481 2.481 0 0 1 0-3.266H13.88zM1.86 20.508c0 .9.732 1.633 1.632 1.633.9 0 1.633-.733 1.633-1.633s-.732-1.633-1.633-1.633c-.9 0-1.633.732-1.633 1.633zm20.28 0c0-.9-.732-1.633-1.632-1.633-.9 0-1.633.732-1.633 1.633 0 .9.732 1.633 1.633 1.633.9 0 1.633-.733 1.633-1.633zM12 20.078a.433.433 0 0 1 .43.43.433.433 0 0 1-.43.43.433.433 0 0 1-.43-.43.433.433 0 0 1 .43-.43zm8.508.86a.433.433 0 0 1-.43-.43.433.433 0 0 1 .43-.43.433.433 0 0 1 .43.43.433.433 0 0 1-.43.43zm-17.016-.86a.433.433 0 0 1 .43.43.433.433 0 0 1-.43.43.433.433 0 0 1-.43-.43.433.433 0 0 1 .43-.43zM12.31 3.796a.433.433 0 0 1-.607 0 .432.432 0 0 1 0-.608.433.433 0 0 1 .607 0 .433.433 0 0 1 0 .608zM5.297 2.203a.433.433 0 0 1 .43.43.433.433 0 0 1-.43.43.433.433 0 0 1-.43-.43.433.433 0 0 1 .43-.43zM22.57 1a.43.43 0 0 1 .43.43v2.062a.43.43 0 0 1-.43.43h-1.806a.43.43 0 0 1-.42.344h-1.118v2.106l3.206 2.424a.43.43 0 0 1 .17.343v2.818a.43.43 0 0 1-.257.394l-1.056.462v.992a.43.43 0 0 1-.43.43h-4.125a.43.43 0 0 1-.43-.43v-.997l-1.055-.457a.43.43 0 0 1-.259-.394V9.139a.43.43 0 0 1 .17-.343l3.207-2.424V4.266H17.25a.43.43 0 0 1-.422-.344h-3.066a.43.43 0 1 1 0-.86h3.058V1.86H7.273v1.204h3.023a.43.43 0 1 1 0 .859H7.265a.43.43 0 0 1-.421.344H5.727v2.106l3.206 2.424a.43.43 0 0 1 .17.343v3.133a.43.43 0 1 1-.86 0v-2.92L5.298 7.126 2.35 9.353v2.92a.43.43 0 0 1-.86 0V9.138a.43.43 0 0 1 .171-.343l3.206-2.424V4.266H3.75a.43.43 0 0 1-.421-.344h-1.9A.43.43 0 0 1 1 3.492V1.43A.43.43 0 0 1 1.43 1h21.14zm-5.406 9.717v2.05l1.025-1.025-1.025-1.025zm1.632 1.633l-1.025 1.025h2.05l-1.025-1.025zm.608-.608l1.025 1.025v-2.05l-1.025 1.025zm-.608-.608l1.025-1.025h-2.05l1.025 1.025zm2.947.542V9.353l-2.947-2.228-2.947 2.228v2.322l.455.197V9.68a.43.43 0 0 1 .43-.43h4.125a.43.43 0 0 1 .43.43v2.195l.454-.199zm-1.83-8.27V1.86H17.68v1.547h2.235zM1.86 1.86v1.204h1.46V1.859H1.86zm2.32 0v1.547h2.235V1.86H4.18zm17.962 1.204V1.859h-1.368v1.204h1.368zm-3.648-.126a.432.432 0 0 1 0-.608.433.433 0 0 1 .607 0 .432.432 0 0 1 0 .608.433.433 0 0 1-.607 0zm-7.378 10.717a.43.43 0 0 1 .43-.43h3.566a.43.43 0 1 1 0 .86h-3.566a.43.43 0 0 1-.43-.43zm-1.354-.43a.43.43 0 0 1 0 .86.433.433 0 0 1-.43-.43.432.432 0 0 1 .43-.43zm.402-1.288a.43.43 0 0 1 .43-.43h2.735a.43.43 0 1 1 0 .86h-2.735a.43.43 0 0 1-.43-.43z"
  >
  </path>
</svg>