<svg xmlns="http://www.w3.org/2000/svg" viewBox="0 0 24 24" id="advantage-2">
  <path 
    style="fill: #535a53;"
    d="M18.39 10.597c0 .474-.24.893-.605 1.14a1.178 1.178 0 0 1-.36 1.668 1.178 1.178 0 0 1-.4 1.603 1.179 1.179 0 0 1-1.014 1.776l-6.138.001a.777.777 0 0 1-.679.4H6.79a.777.777 0 0 1-.776-.776V9.996c0-.428.348-.777.776-.777h2.405c.131 0 .254.033.362.09.221-.175.4-.35.518-.477.227-.241.485-.41.768-.502a3.914 3.914 0 0 0 1.492-.872c.345-.329.486-.605.5-.686a1.37 1.37 0 0 1 1.377-1.366h.013c.38.004.73.164.985.453.28.315.414.743.366 1.175-.077.706-.48 1.494-1.095 2.185h2.532c.76 0 1.378.618 1.378 1.378zm-1.378.626a.627.627 0 0 0 0-1.252h-3.469a.376.376 0 0 1-.236-.668c.842-.682 1.439-1.605 1.521-2.351a.778.778 0 0 0-.18-.594.573.573 0 0 0-.431-.2.63.63 0 0 0-.449.181.615.615 0 0 0-.183.44c0 .316-.257.756-.688 1.179-.343.337-.938.8-1.823 1.087-.16.052-.313.154-.452.302a5.706 5.706 0 0 1-.654.595l.003.054v.801a.376.376 0 1 1-.752 0v-.801a.025.025 0 0 0-.025-.025H6.79a.025.025 0 0 0-.025.025v6.413c0 .014.011.025.025.025h2.405a.025.025 0 0 0 .025-.025v-4.008a.376.376 0 1 1 .752 0v3.633h6.04a.426.426 0 0 0 0-.852.376.376 0 0 1 0-.752h.4a.426.426 0 0 0 0-.852.376.376 0 0 1 0-.751h.401a.426.426 0 0 0 0-.852.376.376 0 0 1 0-.752h.2zm-9.02 3.604a.38.38 0 0 1 .377.378.38.38 0 0 1-.377.377.38.38 0 0 1-.378-.377.38.38 0 0 1 .378-.378zM23.33 12l.646 1.708a.376.376 0 0 1-.059.368l-1.141 1.425.086 1.824a.376.376 0 0 1-.17.332l-1.526 1.003-.481 1.761a.376.376 0 0 1-.264.264l-1.761.481-1.003 1.527a.376.376 0 0 1-.332.169l-1.824-.086-1.425 1.141a.376.376 0 0 1-.368.059L12 23.33l-1.708.646a.376.376 0 0 1-.368-.059l-1.425-1.141-1.824.086a.377.377 0 0 1-.332-.17L5.34 21.167l-1.761-.481a.376.376 0 0 1-.264-.264l-.481-1.761-1.527-1.003a.376.376 0 0 1-.169-.332l.086-1.824-1.141-1.425a.376.376 0 0 1-.059-.368L.67 12l-.646-1.708a.376.376 0 0 1 .059-.368l1.141-1.425-.086-1.824a.376.376 0 0 1 .17-.332L2.833 5.34l.482-1.761a.376.376 0 0 1 .263-.264l1.761-.481 1.003-1.527a.375.375 0 0 1 .332-.169l1.824.086L9.924.083a.376.376 0 0 1 .368-.059L12 .67l1.708-.646a.376.376 0 0 1 .368.059l1.425 1.141 1.824-.086a.376.376 0 0 1 .332.17l1.003 1.526 1.761.481a.376.376 0 0 1 .264.264l.481 1.761 1.527 1.003c.11.073.175.199.169.332l-.086 1.824 1.141 1.425a.376.376 0 0 1 .059.368L23.33 12zm-.753.133a.376.376 0 0 1 0-.266l.62-1.64-1.097-1.37a.376.376 0 0 1-.082-.252l.083-1.752-1.466-.963a.376.376 0 0 1-.156-.214l-.463-1.692-1.692-.463a.376.376 0 0 1-.214-.156l-.963-1.466-1.752.083a.375.375 0 0 1-.253-.082L13.773.803l-1.64.62a.376.376 0 0 1-.266 0l-1.64-.62L8.857 1.9a.376.376 0 0 1-.252.082l-1.752-.083-.962 1.466a.376.376 0 0 1-.215.156l-1.692.463-.463 1.692a.376.376 0 0 1-.156.214l-1.466.963.083 1.752a.376.376 0 0 1-.082.253L.803 10.227l.62 1.64a.376.376 0 0 1 0 .266l-.62 1.64 1.097 1.37a.376.376 0 0 1 .082.252l-.083 1.752 1.466.962c.076.05.132.127.156.215l.463 1.692 1.692.463a.38.38 0 0 1 .215.156l.962 1.466 1.752-.083a.376.376 0 0 1 .253.082l1.369 1.097 1.64-.62a.377.377 0 0 1 .266 0l1.64.62 1.37-1.097a.376.376 0 0 1 .252-.082l1.752.083.963-1.466a.376.376 0 0 1 .214-.156l1.692-.463.463-1.692a.376.376 0 0 1 .156-.215l1.466-.962-.083-1.752a.376.376 0 0 1 .082-.253l1.097-1.369-.62-1.64zM19.06 5.51a.376.376 0 1 1-.554.508 9.125 9.125 0 0 0-.544-.543.376.376 0 1 1 .509-.554 9.92 9.92 0 0 1 .589.59zm-1.924-1.615a.376.376 0 0 1-.404.634A8.875 8.875 0 0 0 11.071 3.2a8.862 8.862 0 0 0-5.336 2.543 8.817 8.817 0 0 0-2.583 5.893 8.814 8.814 0 0 0 2.062 6.046.376.376 0 0 1-.575.484 9.563 9.563 0 0 1-2.238-6.56A9.566 9.566 0 0 1 5.203 5.21a9.616 9.616 0 0 1 5.79-2.759 9.63 9.63 0 0 1 6.144 1.445zm2.95 2.95a9.63 9.63 0 0 1 1.445 6.143 9.615 9.615 0 0 1-2.76 5.79 9.566 9.566 0 0 1-6.787 2.811 9.56 9.56 0 0 1-6.167-2.246.376.376 0 1 1 .484-.575 8.813 8.813 0 0 0 6.046 2.062 8.817 8.817 0 0 0 5.893-2.583 8.862 8.862 0 0 0 2.543-5.336 8.876 8.876 0 0 0-1.331-5.662.376.376 0 1 1 .633-.404z"
  >
  </path>
</svg>