<svg xmlns="http://www.w3.org/2000/svg" viewBox="0 0 24 24" id="advantage-1">
  <path 
    style="fill: #535a53;"
    d="M17.589 12.095c.229.415.41.853.541 1.308h1.676v3.554H18.13c-.13.455-.312.893-.54 1.308l1.185 1.188-2.51 2.513-1.185-1.187c-.414.229-.852.41-1.306.542V23h-3.548v-1.68a6.304 6.304 0 0 1-1.306-.541l-1.186 1.187-2.509-2.513 1.186-1.188a6.347 6.347 0 0 1-.541-1.308H4.194v-3.554H5.87c.13-.455.312-.893.54-1.308l-1.185-1.188 2.51-2.513L8.92 9.58a6.332 6.332 0 0 1 1.306-.539V7.394C9.08 6.777 8.452 5.762 8.452 4.516a3.56 3.56 0 0 1 2.365-3.348L11.29 1v2.904l.71.238.71-.238V1l.473.168a3.56 3.56 0 0 1 2.365 3.348c0 1.246-.628 2.26-1.774 2.878v1.648c.454.131.892.31 1.305.54l1.186-1.188 2.51 2.513-1.186 1.188zM9.16 4.516c0 1.043.544 1.851 1.572 2.339l.202.096v11.62a3.526 3.526 0 0 0 2.13 0v-5.168h.71v4.85a3.555 3.555 0 0 0 1.773-3.073 3.532 3.532 0 0 0-1.774-3.08v.592h-.71v-5.74l.203-.097c1.028-.488 1.572-1.296 1.572-2.339a2.849 2.849 0 0 0-1.42-2.46v2.361L12 4.891l-1.42-.474v-2.36a2.849 2.849 0 0 0-1.419 2.46zm9.936 11.73v-2.132h-1.519l-.066-.272a5.64 5.64 0 0 0-.67-1.62l-.146-.238 1.074-1.077L16.265 9.4l-1.075 1.077-.238-.146a5.633 5.633 0 0 0-1.178-.546v1.52a4.237 4.237 0 0 1 2.484 3.876A4.267 4.267 0 0 1 12 19.446a4.267 4.267 0 0 1-4.258-4.266c0-1.687.967-3.182 2.483-3.876v-1.52a5.598 5.598 0 0 0-1.178.546l-.238.146-1.075-1.077-1.505 1.508 1.075 1.077-.146.239a5.637 5.637 0 0 0-.67 1.619l-.066.272H4.903v2.132h1.519l.066.273a5.64 5.64 0 0 0 .67 1.619l.146.239-1.075 1.076 1.506 1.508 1.074-1.077.239.147a5.616 5.616 0 0 0 1.616.671l.271.066v1.521h2.13v-1.521l.271-.066a5.62 5.62 0 0 0 1.617-.672l.238-.146 1.075 1.077 1.505-1.508-1.075-1.077.146-.239a5.637 5.637 0 0 0 .67-1.619l.066-.272h1.519zm-8.87-4.146a3.532 3.532 0 0 0-1.774 3.08c0 1.312.715 2.458 1.774 3.074V12.1zm-7.807 6.344a1.065 1.065 0 1 1-.71 0V5.583c0-.588.478-1.067 1.065-1.067h2.904c.147-.412.537-.71 1-.71a1.067 1.067 0 0 1 0 2.132c-.463 0-.853-.298-1-.71H2.774a.356.356 0 0 0-.355.355v12.861zM6.677 4.516a.356.356 0 0 0 0 .711.356.356 0 0 0 0-.71zM2.065 19.801a.356.356 0 0 0 0-.711.356.356 0 0 0 0 .71zM3.129 5.938h.71v.71h-.71v-.71zm0 1.422h.71v.71h-.71v-.71zm0 1.422h.71v.71h-.71v-.71zm19.161 9.662a1.065 1.065 0 1 1-.71 0V5.583a.356.356 0 0 0-.354-.356h-2.904a1.063 1.063 0 0 1-1 .711 1.067 1.067 0 0 1 0-2.133c.463 0 .853.299 1 .711h2.904c.587 0 1.064.479 1.064 1.067v12.861zM17.323 5.227a.356.356 0 0 0 0-.71.356.356 0 0 0 0 .71zm4.612 14.574a.356.356 0 0 0 0-.711.356.356 0 0 0 0 .71zM20.161 5.938h.71v.71h-.71v-.71zm0 1.422h.71v.71h-.71v-.71zm0 1.422h.71v.71h-.71v-.71zm-8.516 8.53h.71v.712h-.71v-.711zm0-1.421h.71v.71h-.71v-.71zm0-1.422h.71v.71h-.71v-.71z"
  >
  </path>
</svg>