<svg xmlns="http://www.w3.org/2000/svg" viewBox="0 0 24 24" id="inst">
    <path
        style="fill: #313234;"
        d="M18.667 3.667H5.333c-.916 0-1.666.75-1.666 1.666v13.334c0 .916.75 1.666 1.666 1.666h13.334c.916 0 1.666-.75 1.666-1.666V5.333c0-.916-.75-1.666-1.666-1.666zm-6.667 5c1.833 0 3.333 1.5 3.333 3.333 0 1.833-1.5 3.333-3.333 3.333A3.343 3.343 0 0 1 8.667 12c0-1.833 1.5-3.333 3.333-3.333zm-6.25 10c-.25 0-.417-.167-.417-.417v-7.083h1.75C7 11.417 7 11.75 7 12c0 2.75 2.25 5 5 5s5-2.25 5-5c0-.25 0-.583-.083-.833h1.75v7.083c0 .25-.167.417-.417.417H5.75zm12.917-11.25c0 .25-.167.416-.417.416h-1.667c-.25 0-.416-.166-.416-.416V5.75c0-.25.166-.417.416-.417h1.667c.25 0 .417.167.417.417v1.667z"
    >
    </path>
</svg>