<?xml version="1.0" encoding="utf-8"?>
<!-- Generator: Adobe Illustrator 18.0.0, SVG Export Plug-In . SVG Version: 6.00 Build 0)  -->
<!DOCTYPE svg PUBLIC "-//W3C//DTD SVG 1.1//EN" "http://www.w3.org/Graphics/SVG/1.1/DTD/svg11.dtd">
<svg version="1.1" xmlns="http://www.w3.org/2000/svg" xmlns:xlink="http://www.w3.org/1999/xlink" x="0px" y="0px"
	 viewBox="0 0 595.3 595.3" enable-background="new 0 0 595.3 595.3" xml:space="preserve">
<g id="Capa_1">
</g>
<g id="Capa_2">
	<path fill="#313234" stroke="#313234" stroke-width="8.733" d="M432,201.1c-16.8,0-32.9-6.7-44.8-18.6
		c-11.9-11.9-18.6-28.1-18.6-44.9c0-1.2,0.1-2.5,0.2-4c0-0.2,0-0.5,0-0.7c0.1-1.8,0.2-3.8,0.2-5.9c-0.1-3.8-0.7-8.8-4.1-12.2
		c-3.3-3.3-8.4-4.3-12.3-4.6c-3.2-0.3-6.5-0.2-9.2-0.2c-0.8,0-1.5,0-2.1,0c-0.6,0-1.3,0-2.1,0c-2.6,0-5.8-0.1-8.8,0.2
		c-3.8,0.4-8.6,1.3-11.9,4.6c-3.4,3.4-4,8.4-4.1,12.2c0,2,0.1,4.1,0.2,5.9c0,0.3,0,0.5,0,0.7c0.1,1.6,0.2,2.9,0.2,4v226.4
		c0,12.6-3.7,24.9-10.7,35.3c-7,10.4-16.9,18.6-28.4,23.4c-11.6,4.8-24.3,6.1-36.6,3.6c-12.3-2.5-23.6-8.5-32.5-17.4
		c-8.9-8.9-14.9-20.2-17.4-32.5c-2.4-12.3-1.2-25.1,3.6-36.7c4.8-11.6,12.9-21.5,23.3-28.5c10.4-7,22.7-10.7,35.2-10.7
		c1,0,2.1,0,3.4,0.1c0.5,0,1,0,1.5,0.1c1.9,0.1,4,0.1,6,0c3.9-0.2,9-0.9,12.3-4.3c3.4-3.4,4.1-8.4,4.2-12.2c0.1-2,0-4.1,0-5.9
		c0-0.4,0-0.9-0.1-1.3c-0.1-1.4-0.1-2.5-0.1-3.6c0-0.3,0-0.6,0-0.9c0-2.8,0-6.4-0.4-9.9c-0.5-3.8-1.7-8.2-4.8-11.4
		c-3.2-3.3-7.8-4.2-11.5-4.6c-2.8-0.3-5.8-0.2-8.3-0.2c-0.8,0-1.6,0-2.3,0c-23.2,0-45.9,6.9-65.2,19.8
		c-19.3,12.9-34.3,31.3-43.2,52.8c-8.9,21.5-11.2,45.1-6.7,67.9c4.5,22.8,15.7,43.7,32.1,60.2c16.4,16.4,37.3,27.6,60.1,32.2
		c22.8,4.5,46.3,2.2,67.8-6.7c21.4-8.9,39.8-24,52.6-43.3c12.9-19.3,19.8-42.1,19.8-65.3V236.5c18.8,12.2,40.8,18.7,63.4,18.6
		c1.2,0,2.5,0.1,4.1,0.2c0.2,0,0.4,0,0.5,0c1.8,0.1,3.8,0.2,5.7,0.2c3.7-0.1,8.6-0.6,12.1-4.1c3.2-3.2,4.3-8.1,4.8-12
		c0.5-3.7,0.4-7.6,0.4-10.4c0-0.3,0-0.6,0-0.9c0-0.3,0-0.6,0-0.9c0-2.8,0-6.4-0.4-9.9c-0.5-3.8-1.7-8.3-4.8-11.4l-3.1,3.1l3.1-3.1
		c-3.3-3.3-7.9-4.2-11.7-4.6c-2.9-0.3-6.1-0.2-8.7-0.2C433.4,201.1,432.6,201.1,432,201.1z"/>
</g>
</svg>
