<svg xmlns="http://www.w3.org/2000/svg" viewBox="0 0 24 24" id="vk">
    <path
        fill="#313234"
        style="fill: #313234;"
        d="M21.07 16.447a1.256 1.256 0 0 0-.063-.12c-.318-.573-.926-1.276-1.823-2.11l-.019-.019-.01-.009-.009-.01h-.01c-.407-.388-.665-.649-.773-.782-.197-.255-.241-.513-.133-.774.076-.197.362-.614.859-1.25.26-.337.467-.608.62-.811 1.101-1.464 1.578-2.4 1.432-2.807l-.057-.095c-.038-.057-.137-.11-.296-.157-.159-.048-.363-.056-.61-.024l-2.75.019a.357.357 0 0 0-.19.005l-.125.028-.048.024-.038.029a.424.424 0 0 0-.105.1.655.655 0 0 0-.095.167c-.3.77-.64 1.486-1.022 2.148-.235.394-.451.736-.649 1.026-.197.29-.362.503-.496.64a3.462 3.462 0 0 1-.363.329c-.108.083-.19.118-.248.105a6.995 6.995 0 0 1-.162-.038.635.635 0 0 1-.215-.234 1.047 1.047 0 0 1-.11-.373 4.104 4.104 0 0 1-.033-.386 8.076 8.076 0 0 1 .005-.458c.006-.198.01-.331.01-.401 0-.242.004-.505.013-.788l.024-.673c.007-.165.01-.34.01-.525 0-.184-.011-.33-.034-.434a1.486 1.486 0 0 0-.1-.306.514.514 0 0 0-.195-.229 1.103 1.103 0 0 0-.32-.129c-.337-.076-.767-.117-1.289-.124-1.183-.012-1.944.064-2.281.23-.134.07-.255.165-.363.286-.114.14-.13.216-.048.229.382.057.653.194.812.41l.057.115c.045.083.09.229.134.439.044.21.073.442.086.697a7.43 7.43 0 0 1 0 1.193c-.032.33-.062.588-.091.773a1.548 1.548 0 0 1-.243.659.164.164 0 0 1-.048.047.715.715 0 0 1-.258.048c-.089 0-.197-.044-.324-.134a2.29 2.29 0 0 1-.396-.367 4.913 4.913 0 0 1-.464-.654c-.171-.28-.35-.61-.534-.993l-.153-.277a23.812 23.812 0 0 1-.391-.777 15 15 0 0 1-.44-.988.63.63 0 0 0-.228-.306l-.048-.029a.653.653 0 0 0-.153-.08 1.013 1.013 0 0 0-.22-.063l-2.615.02c-.267 0-.448.06-.544.18l-.038.058a.309.309 0 0 0-.029.153c0 .07.02.156.058.257.381.898.797 1.763 1.245 2.597.449.833.839 1.505 1.17 2.014.33.509.668.99 1.011 1.441.344.452.571.741.683.869.111.127.199.222.262.286l.239.23c.153.152.377.335.673.548.296.213.624.423.983.63.36.207.778.375 1.255.506.478.13.942.183 1.394.158h1.098c.222-.02.391-.09.506-.21l.038-.048a.633.633 0 0 0 .071-.177.97.97 0 0 0 .034-.262c-.007-.274.014-.52.062-.74.047-.22.101-.385.162-.496a1.22 1.22 0 0 1 .368-.42.623.623 0 0 1 .076-.034c.153-.05.332-.001.54.148.206.15.4.335.582.554.181.22.399.466.653.74.255.273.478.477.669.61l.19.115c.128.077.293.147.497.21.203.064.381.08.534.048l2.444-.038c.242 0 .43-.04.563-.12.134-.079.213-.167.239-.262a.74.74 0 0 0 .005-.325 1.198 1.198 0 0 0-.068-.252z"
    >
    </path>
</svg>